# xmcd CD database file
#
# Track frame offsets:
#	150
#	14512
#	29317
#	40250
#	53432
#	72020
#	90592
#	110935
#	128582
#	146622
#	160090
#	178240
#	191590
#	208772
#	222752
#	241002
#	256627
#	271910
#	289662
#	306575
#	307447
#	308202
#	309040
#	309857
#	310975
#	312045
#	313252
#	314365
#	315202
#	316327
#	317295
#	318277
#	319090
#	320040
#	320840
#	321977
#	322787
#	323657
#	324872
#
# Disc length: 4341 seconds
#
# Revision: 1
# Processed by: cddbd v1.5.2PL0 Copyright (c) Steve Scherf et al.
# Submitted via: CDex 1.70beta2
#
DISCID=2310f327
DTITLE=Jones Country - Jones Country Recurrent CHC-1162
DYEAR=0000
DGENRE=Country
TTITLE0=Rick Trevino/Doctor Time
TTITLE1=Wade Hayes/Old Enough To Know Better [radio edit]
TTITLE2=Tracy Byrd/First STep
TTITLE3=Pam Tillis/Mi Vida Loca
TTITLE4=Travis Tritt/Between An Old Memory And Me
TTITLE5=Shenandoah and Allison Krauss/Somewhere In The Vicinity Of The Heart
TTITLE6=Toby Keith/Upstairs Downtown
TTITLE7=George Ducas/Lipstick Promises [single edit]
TTITLE8=Alan Jackson/Gone Country
TTITLE9=Collin Raye/My Kind Of Girl
TTITLE10=John Anderson/Bend It Until It Breaks
TTITLE11=Mary Chapin Carpenter/Tender When I Want To Be
TTITLE12=Blackhawk/Down In Flames
TTITLE13=Tracy Lawrence/As Any Fool Can See
TTITLE14=Little Texas/Amy's Back In Austin [single version]
TTITLE15=Neal McCoy/For A Change
TTITLE16=George Strait/You Can't Make A Heart Love Somebody
TTITLE17=Clint Black/Wherever You Go [radio edit]
TTITLE18=Clay Walker/This Woman And This Man [edit]
TTITLE19=Production Track 20
TTITLE20=Production Track 21
TTITLE21=Production Track 22
TTITLE22=Production Track 23
TTITLE23=Production Track 24
TTITLE24=Production Track 25
TTITLE25=Production Track 26
TTITLE26=Production Track 27
TTITLE27=Production Track 28
TTITLE28=Production Track 29
TTITLE29=Production Track 30
TTITLE30=Production Track 31
TTITLE31=Production Track 32
TTITLE32=Production Track 33
TTITLE33=Production Track 34
TTITLE34=Production Track 35
TTITLE35=Production Track 36
TTITLE36=Production Track 37
TTITLE37=Production Track 38
TTITLE38=Production Track 39
EXTD=YEAR: 0000
EXTT0=
EXTT1=
EXTT2=
EXTT3=
EXTT4=
EXTT5=
EXTT6=
EXTT7=
EXTT8=
EXTT9=
EXTT10=
EXTT11=
EXTT12=
EXTT13=
EXTT14=
EXTT15=
EXTT16=
EXTT17=
EXTT18=
EXTT19=
EXTT20=
EXTT21=
EXTT22=
EXTT23=
EXTT24=
EXTT25=
EXTT26=
EXTT27=
EXTT28=
EXTT29=
EXTT30=
EXTT31=
EXTT32=
EXTT33=
EXTT34=
EXTT35=
EXTT36=
EXTT37=
EXTT38=
PLAYORDER=
